<?xml version="1.0" encoding="iso-8859-1"?>
<!-- Generator: Adobe Illustrator 21.0.0, SVG Export Plug-In . SVG Version: 6.00 Build 0)  -->
<svg version="1.1" id="Capa_1" xmlns="http://www.w3.org/2000/svg" xmlns:xlink="http://www.w3.org/1999/xlink" x="0px" y="0px"
	 viewBox="0 0 512 512" style="enable-background:new 0 0 512 512;" xml:space="preserve">
<path style="fill:#662E57;" d="M15,456.834C15,478.925,33.075,497,55.167,497h401.666C478.925,497,497,478.925,497,456.834V55.167
	C497,33.075,478.925,15,456.833,15H55.167C33.075,15,15,33.075,15,55.167V456.834z"/>
<path style="fill:#3B2B4D;" d="M456.833,15H256v482h200.833C478.925,497,497,478.925,497,456.834V55.167
	C497,33.075,478.925,15,456.833,15z"/>
<g>
	<path style="fill:#F63A79;" d="M456.833,512H55.167C24.748,512,0,487.253,0,456.834V55.167C0,24.748,24.748,0,55.167,0h401.666
		C487.252,0,512,24.748,512,55.167v401.667C512,487.253,487.252,512,456.833,512z M55.167,30C41.29,30,30,41.29,30,55.167v401.667
		C30,470.711,41.29,482,55.167,482h401.666C470.71,482,482,470.711,482,456.834V55.167C482,41.29,470.71,30,456.833,30H55.167z"/>
	<path style="fill:#F63A79;" d="M127.466,415.6c-8.284,0-15-6.716-15-15V111.4c0-8.284,6.716-15,15-15s15,6.716,15,15v289.2
		C142.466,408.884,135.75,415.6,127.466,415.6z"/>
	<path style="fill:#F63A79;" d="M384.533,96.4c-8.284,0-15,6.716-15,15v113.533H304.2c-52.567,0-95.334,42.767-95.334,95.333
		S251.633,415.6,304.2,415.6h80.333c8.284,0,15-6.716,15-15v-4.819V239.934V111.4C399.533,103.116,392.817,96.4,384.533,96.4z
		 M238.866,320.267c0-36.024,29.309-65.333,65.334-65.333h65.333V385.6H304.2C268.175,385.6,238.866,356.291,238.866,320.267z"/>
</g>
<g>
	<path style="fill:#C8366D;" d="M384.533,96.4c-8.284,0-15,6.716-15,15v113.533H304.2c-17.574,0-34.049,4.785-48.2,13.113v38.166
		c11.954-13.068,29.135-21.279,48.2-21.279h65.333V385.6H304.2c-19.065,0-36.246-8.211-48.2-21.279v38.166
		c14.151,8.328,30.626,13.113,48.2,13.113h80.333c8.284,0,15-6.716,15-15v-4.819V239.934V111.4
		C399.533,103.116,392.817,96.4,384.533,96.4z"/>
	<path style="fill:#C8366D;" d="M456.833,0H256v30h200.833C470.71,30,482,41.29,482,55.167v401.667
		C482,470.711,470.71,482,456.833,482H256v30h200.833C487.252,512,512,487.253,512,456.834V55.167C512,24.748,487.252,0,456.833,0z"
		/>
</g>
</svg>
